<svg xmlns="http://www.w3.org/2000/svg" viewBox="0 0 700 600" width="700" height="600" fill="none"><defs><linearGradient id="bgh3" x1="0" y1="0" x2="1" y2="1"><stop offset="0" stop-color="#eef3f9"/><stop offset="1" stop-color="#eff5fd"/></linearGradient></defs><rect width="700" height="600" fill="url(#bgh3)"/><circle cx="350" cy="200" r="210" fill="#ffffff" opacity="1.0"/><circle cx="250" cy="330.0" r="26.0" fill="#f3d9c4"/><path d="M206.0,520 C206.0,374.2 294.0,374.2 294.0,520 Z" fill="#123a8c"/><circle cx="450" cy="330.0" r="26.0" fill="#f3d9c4"/><path d="M406.0,520 C406.0,374.2 494.0,374.2 494.0,520 Z" fill="#0f6f68"/><circle cx="350" cy="394.6" r="17.16" fill="#f7e0cd"/><path d="M320.96,520 C320.96,423.77200000000005 379.04,423.77200000000005 379.04,520 Z" fill="#0d2a5e"/><path d="M120 520 h460" stroke="#b9d0ee" stroke-width="7" stroke-linecap="round"/><path d="M350,194 C298,158 306,116 350,136 C394,116 402,158 350,194 Z" fill="#e2a3a3"/><g transform="rotate(12 588.6 435.0)"><path d="M560.0,380.0 Q565.7,440.5 617.2,490.0 Q614.3,424.0 560.0,380.0 Z" fill="#8fbfa8"/><path d="M566.9,395.4 L610.3,474.6" stroke="#0f6f68" stroke-width="2" stroke-linecap="round" opacity=".55"/></g><path d="M528,430 C520,466.0 536,493.0 528,520" stroke="#0f6f68" stroke-width="5" stroke-linecap="round"/><path d="M180,151 L186,164 199,170 186,176 180,189 174,176 161,170 174,164 Z" fill="#0f6f68"/></svg>
