<svg xmlns="http://www.w3.org/2000/svg" viewBox="0 0 560 420" width="560" height="420" fill="none"><defs><linearGradient id="bgfs" x1="0" y1="0" x2="1" y2="1"><stop offset="0" stop-color="#eff5fd"/><stop offset="1" stop-color="#dcefec"/></linearGradient></defs><rect width="560" height="420" fill="url(#bgfs)"/><circle cx="140" cy="120" r="100" fill="#ffffff" opacity="1.0"/><path d="M180 350 c-40 -20 -60 -60 -44 -100 c14 -36 54 -52 96 -40 l90 26 c34 10 52 44 44 78 c-10 40 -46 64 -88 56 Z" fill="#f3d9c4"/><circle cx="230" cy="270" r="16" fill="#b91c1c" opacity=".7"/><circle cx="290" cy="238" r="10" fill="#b91c1c" opacity=".55"/><circle cx="262" cy="312" r="9" fill="#b91c1c" opacity=".5"/><path d="M400 120 c40 46 40 100 0 150 c-40 -50 -40 -104 0 -150 Z" fill="#bfe0dc"/><path d="M470,279 L476,294 491,300 476,306 470,321 464,306 449,300 464,294 Z" fill="#0f6f68"/><path d="M60 380 h440" stroke="#b9d0ee" stroke-width="6" stroke-linecap="round"/></svg>
