<svg xmlns="http://www.w3.org/2000/svg" viewBox="0 0 560 420" width="560" height="420" fill="none"><defs><linearGradient id="bgfw" x1="0" y1="0" x2="1" y2="1"><stop offset="0" stop-color="#eff5fd"/><stop offset="1" stop-color="#dcefec"/></linearGradient></defs><rect width="560" height="420" fill="url(#bgfw)"/><circle cx="280" cy="150" r="150" fill="#ffffff" opacity="1.0"/><circle cx="280" cy="152.0" r="31.2" fill="#f3d9c4"/><path d="M227.2,380 C227.2,205.04 332.8,205.04 332.8,380 Z" fill="#7c5aa6"/><path d="M280,183 C220,141 229,93 280,116 C331,93 340,141 280,183 Z" fill="#d98a95"/><g transform="rotate(16 436.0 290.0)"><path d="M410.0,240.0 Q415.2,295.0 462.0,340.0 Q459.4,280.0 410.0,240.0 Z" fill="#8fbfa8"/><path d="M416.2,254.0 L455.8,326.0" stroke="#0f6f68" stroke-width="2" stroke-linecap="round" opacity=".55"/></g><path d="M392,300 C384,332.0 400,356.0 392,380" stroke="#7c5aa6" stroke-width="4" stroke-linecap="round"/><path d="M140,99 L146,114 161,120 146,126 140,141 134,126 119,120 134,114 Z" fill="#0f6f68"/><path d="M60 380 h440" stroke="#b9d0ee" stroke-width="6" stroke-linecap="round"/></svg>
